{"title":"Pirates Of The Caribbean - 2 (2006) HQ 1080p Blu-ray DTS 5.1 FR","uid":15611620,"size":11573777385,"categoryP":"video","categoryS":"hd___movies","magnet":"?xt=urn:btih:343c9699431fc74fc5b0f78bcffa0962acc47e6a&amp;dn=Pirates+Of+The+Caribbean+-+2+%282006%29+HQ+1080p+Blu-ray+DTS+5.1+FR+&amp;tr=udp%3A%2F%2Ftracker.leechers-paradise.org%3A6969&amp;tr=udp%3A%2F%2Fzer0day.ch%3A1337&amp;tr=udp%3A%2F%2Fopen.demonii.com%3A1337&amp;tr=udp%3A%2F%2Ftracker.coppersurfer.tk%3A6969&amp;tr=udp%3A%2F%2Fexodus.desync.com%3A6969","seeders":2,"leechers":2,"uploader":"SaM","files":3,"time":1471789560,"description":"- HollyWooD Movie-\r\n\r\nPirates Des Caraibes\r\nLa Malédiction du Black Pearl\r\n** 2006 **\r\nHQ 1080p / Blu-ray / x264\r\nFrançais DTS 5.1\r\nEnglish AAC 5.1\r\nEnglish &amp; French subs \r\n \nhttp://extraimago.com/image/wcxE \nhttp://extraimago.com/image/wcxi \nhttp://extraimago.com/image/wcxm \nhttp://extraimago.com/image/wcxR \nhttp://extraimago.com/image/wcxQ \nhttp://extraimago.com/image/wcxL \nhttp://extraimago.com/image/wcxy \nhttp://extraimago.com/image/wcxq \nhttp://extraimago.com/image/wcxS \nhttp://extraimago.com/image/wcxO\r\n\r\n\r\nSource : BD50 Blu-ray\r\nFile size : 10.7 GiB\r\nDuration : 2h 30mn\r\nOverall bit rate : 10.2 Mbps\r\n\r\n\r\n[B]Video\r\nFormat : AVC\r\nFormat/Info : Advanced Video Codec\r\nFormat profile :   \r\nFormat settings, CABAC : Yes\r\nFormat settings, ReFrames : 5 frames\r\nCodec ID : V_MPEG4/ISO/AVC\r\nDuration : 2h 30mn\r\nBit rate : 8 450 Kbps\r\nWidth : 1 920 pixels\r\nHeight : 800 pixels\r\nDisplay aspect ratio : 2.40:1\r\nFrame rate mode : Constant\r\nFrame rate : 23.976 (24000/1001) fps\r\ncolor space : YUV\r\nChroma subsampling : 4:2:0\r\nBit depth : 8 bits\r\nScan type : Progressive\r\nBits/(Pixel*Frame) : 0.229\r\nStream size : 8.89 GiB (83%)\r\nDefault : Yes\r\nForced : No\r\ncolor range : Limited\r\ncolor primaries : BT.709\r\nTransfer characteristics : BT.709\r\nMatrix coefficients : BT.709\r\n\r\nAudio\r\nFormat : DTS\r\nFormat/Info : Digital Theater Systems\r\nMode : 16\r\nFormat settings, Endianness : Big\r\nCodec ID : A_DTS\r\nDuration : 2h 30mn\r\nBit rate mode : Constant\r\nBit rate : 1 509 Kbps\r\nChannel(s) : 6 channels\r\nChannel positions : Front: L C R, Side: L R, LFE\r\nSampling rate : 48.0 KHz\r\nFrame rate : 93.750 fps (512 spf)\r\nBit depth : 24 bits\r\nCompression mode : Lossy\r\nStream size : 1.59 GiB (15%)\r\nLanguage : French\r\nDefault : Yes\r\nForced : No\r\n\r\nAudio #2\r\nID : 3\r\nFormat : AAC\r\nFormat/Info : Advanced Audio Codec\r\nFormat profile : LC\r\nCodec ID : A_AAC\r\nDuration : 2h 30mn\r\nBit rate : 192 Kbps\r\nChannel(s) : 6 channels\r\nChannel positions : Front: L C R, Side: L R, LFE\r\nSampling rate : 48.0 KHz\r\nFrame rate : 46.875 fps (1024 spf)\r\nCompression mode : Lossy\r\nDelay relative to video : 9ms\r\nStream size : 206 MiB (2%)\r\nDefault : No\r\nForced : No\r\n\r\nChapters = None\r\nSample : Included\r\n[/B]\r\nA DDR Exclusive Encode","torrent":{"xt":"urn:btih:343c9699431fc74fc5b0f78bcffa0962acc47e6a","amp;dn":"Pirates+Of+The+Caribbean+-+2+%282006%29+HQ+1080p+Blu-ray+DTS+5.1+FR+","amp;tr":["udp%3A%2F%2Ftracker.leechers-paradise.org%3A6969","udp%3A%2F%2Fzer0day.ch%3A1337","udp%3A%2F%2Fopen.demonii.com%3A1337","udp%3A%2F%2Ftracker.coppersurfer.tk%3A6969","udp%3A%2F%2Fexodus.desync.com%3A6969"],"infoHash":"343c9699431fc74fc5b0f78bcffa0962acc47e6a","infoHashBuffer":{"type":"Buffer","data":[52,60,150,153,67,31,199,79,197,176,247,139,207,250,9,98,172,196,126,106]},"announce":[],"urlList":[]}}